<svg viewBox="0 0 56 56" xmlns="http://www.w3.org/2000/svg">
<path class="no-fill stroke s-primary fill-even" transform="translate(-1970 -156)" d="m1994 163h28a2 2 0 0 1 2 2v38a2 2 0 0 1-2 2h-28a2 2 0 0 1-2-2v-38a2 2 0 0 1 2-2z"/>
<path class="stroke s-primary fill-even f-white stroke-1" transform="translate(-1970 -156)" d="m1993 177h26"/>
<path class="stroke s-primary fill-even f-white stroke-1" transform="translate(-1970 -156)" d="m1993 191h26"/>
<path class="stroke s-primary fill-even f-white stroke-1" transform="translate(-1970 -156)" d="m2016 170h3"/>
<path class="fill-even f-primary" transform="translate(-1970 -156)" d="m1999 169a1 1 0 1 1-1 1 1 1 0 0 1 1-1zm0 14a1 1 0 1 1-1 1 1 1 0 0 1 1-1zm0 14a1 1 0 1 1-1 1 1 1 0 0 1 1-1zm4-28a1 1 0 1 1-1 1 1 1 0 0 1 1-1zm0 14a1 1 0 1 1-1 1 1 1 0 0 1 1-1zm0 14a1 1 0 1 1-1 1 1 1 0 0 1 1-1z"/>
<path class="stroke s-primary fill-even f-white stroke-1" transform="translate(-1970 -156)" d="m2016 184h3"/>
<path class="stroke s-primary fill-even f-white stroke-1" transform="translate(-1970 -156)" d="m2016 198h3"/>
<path class="no-fill stroke s-primary fill-even" transform="translate(-1970 -156)" d="m1986 205v-7"/>
<path class="no-fill stroke s-primary fill-even" transform="translate(-1970 -156)" d="m1992 198h-17.99a2 2 0 0 1-2-2v-22a2 2 0 0 1 2-2h17.99"/>
<rect class="f-primary" x="10" y="48" width="20" height="2" rx="1" ry="1"/>
</svg>