<svg version="1.1" id="Sustainability" xmlns:x="&amp;ns_extend;" xmlns:i="&amp;ns_ai;" xmlns:graph="&amp;ns_graphs;" xmlns="http://www.w3.org/2000/svg" xmlns:xlink="http://www.w3.org/1999/xlink" x="0px" y="0px" viewBox="0 0 225.8 208.2" style="enable-background:new 0 0 225.8 208.2;" xml:space="preserve">
<metadata>
<sfw>
<slices/>
<slicesourcebounds bottomleftorigin="true" height="169.1" width="222.8" x="1610" y="-536.3"/>
</sfw>
</metadata>
<g id="Global_leaf_1_">
<path id="World_3_" style="fill:#1C40F2;" d="M113.7,13.2c-38.9,0-70.6,31.7-70.6,70.6c0,38.9,31.7,70.6,70.6,70.6&#10;&#9;&#9;c38.9,0,70.6-31.7,70.6-70.6C184.3,44.9,152.6,13.2,113.7,13.2z M116.5,57.6c8.6-0.1,17.2-0.6,25.7-1.7c2.7,7.9,4.2,16.4,4.5,25.2&#10;&#9;&#9;h-30.2V57.6z M116.5,52.1V20c10.3,7.4,18.5,18.1,23.7,30.6C132.3,51.5,124.4,52,116.5,52.1z M111,20v32.1&#10;&#9;&#9;c-7.8-0.1-15.7-0.7-23.6-1.6C92.6,38,100.7,27.4,111,20z M111,57.5v23.5H80.8c0.3-8.8,1.8-17.4,4.6-25.4&#10;&#9;&#9;C94,56.8,102.5,57.4,111,57.5z M75.3,81.1H48.7c0.5-11.1,3.7-21.4,9-30.4c7.4,1.8,14.7,3.2,22.1,4.3C77.1,63.2,75.6,72,75.3,81.1z&#10;&#9;&#9; M75.3,86.6c0.3,9,1.8,17.8,4.5,26c-7.4,1.1-14.7,2.6-22,4.4c-5.3-9-8.6-19.3-9-30.4H75.3z M80.8,86.6H111v23.5&#10;&#9;&#9;c-8.6,0.1-17.2,0.6-25.7,1.7C82.6,103.9,81,95.4,80.8,86.6z M111,115.6v32.1c-10.3-7.4-18.5-18.1-23.7-30.6&#10;&#9;&#9;C95.1,116.2,103,115.7,111,115.6z M116.5,147.7v-32.1c7.9,0.1,15.7,0.6,23.7,1.6C134.9,129.6,126.8,140.2,116.5,147.7z&#10;&#9;&#9; M116.5,110.1V86.6h30.2c-0.3,8.8-1.8,17.4-4.5,25.3C133.5,110.8,125,110.2,116.5,110.1z M152.1,86.6h26.5&#10;&#9;&#9;c-0.5,11.1-3.7,21.4-9,30.4c-7.4-1.8-14.7-3.2-22-4.3C150.3,104.4,151.9,95.6,152.1,86.6z M152.1,81.1c-0.3-9-1.8-17.7-4.5-25.9&#10;&#9;&#9;c7.4-1.1,14.7-2.6,22-4.5c5.3,9,8.6,19.3,9,30.4H152.1z M166.5,45.8c-6.8,1.7-13.7,3-20.7,4.1C141.1,38.1,134,27.7,125,19.8&#10;&#9;&#9;C142,22.8,156.8,32.4,166.5,45.8z M102.4,19.8c-8.9,7.9-16,18.2-20.7,29.9c-6.9-1-13.8-2.3-20.8-3.9&#10;&#9;&#9;C70.7,32.3,85.4,22.8,102.4,19.8z M61,121.8c6.9-1.7,13.8-3,20.7-4c4.7,11.8,11.8,22.1,20.7,30.1C85.4,144.9,70.7,135.3,61,121.8z&#10;&#9;&#9; M125,147.9c9-7.9,16-18.3,20.7-30c6.9,1,13.8,2.3,20.8,3.9C156.7,135.3,142,144.9,125,147.9z"/>
<path style="fill:#1C40F2;" d="M113.4,159.9c-1.6-21-16.8-61-111.5-56.3c0,0,21.1,106.2,107,70.2c-34.4-22.6-67.4-42.2-67.4-42.2&#10;&#9;&#9;c32.2,10.4,55.6,25,71.6,38.1c0-0.3,0.1-0.7,0.1-1c0.1,0.8,0.1,1.5,0.2,2c16-13.1,39.4-27.7,71.6-38.1c0,0-33,19.5-67.4,42.2&#10;&#9;&#9;c85.9,36,107-70.2,107-70.2C131.6,99.9,115.4,138.7,113.4,159.9z"/>
</g>
</svg>