<svg version="1.1" id="icon-ssl" xmlns="http://www.w3.org/2000/svg" xmlns:xlink="http://www.w3.org/1999/xlink" width="56" height="56" viewBox="0 0 56 56" style="enable-background:new 0 0 56 56;" xml:space="preserve">
<path id="Kształt_27" class="no-fill stroke stroke-1 s-primary" d="M30,51.2L30,51.2c-1.2,0.7-2.7,0.7-3.9,0h0c0,0-20-8.6-20-29.1V10.3c0-1.9,1.4-3.5,3.2-3.9&#10;                                                        l0,0c12.4-2.7,25.2-2.7,37.5,0l0,0c1.9,0.4,3.2,2,3.2,3.9v11.8C50,42.6,30,51.2,30,51.2z"/>
<path id="Kształt_28" class="f-primary" d="M28,15.5c-2.6-0.2-4.8,1.8-5,4.3c0,0.2,0,0.4,0,0.7v1c-1.1,0-2,0.9-2,2v8c0,1.1,0.9,2,2,2h10&#10;                                                        c1.1,0,2-0.9,2-2v-8c0-1.1-0.9-2-2-2v-1c0.2-2.6-1.7-4.8-4.3-5C28.5,15.5,28.2,15.5,28,15.5z M28,17.5c1.9,0,3,0.7,3,3v1h-6v-1&#10;                                                        C25,18.2,26,17.5,28,17.5z"/>
</svg>