<svg enable-background="new 0 0 56 56" version="1.1" viewBox="0 0 56 56" xml:space="preserve" xmlns="http://www.w3.org/2000/svg">
<path class="no-fill stroke stroke-1 s-primary" d="m30 51.2c-1.2 0.7-2.7 0.7-3.9 0 0 0-20-8.6-20-29.1v-11.8c0-1.9 1.4-3.5 3.2-3.9 12.4-2.7 25.2-2.7 37.5 0 1.9 0.4 3.2 2 3.2 3.9v11.8c0 20.5-20 29.1-20 29.1z"/>
<path class="f-primary" d="m28 15.5c-2.6-0.2-4.8 1.8-5 4.3v0.7 1c-1.1 0-2 0.9-2 2v8c0 1.1 0.9 2 2 2h10c1.1 0 2-0.9 2-2v-8c0-1.1-0.9-2-2-2v-1c0.2-2.6-1.7-4.8-4.3-5h-0.7zm0 2c1.9 0 3 0.7 3 3v1h-6v-1c0-2.3 1-3 3-3z"/>
</svg>