<svg width="18" height="18" viewBox="0 0 18 18" fill="none" xmlns="http://www.w3.org/2000/svg">
<path d="M17.5 5H15.5C15.22 5 15 5.22 15 5.5V12H5.5C5.22 12 5 12.22 5 12.5V14.5C5 14.78 5.22 15 5.5 15H13.79L16.64 17.85C16.74 17.95 16.87 18 17 18H17.5C17.78 18 18 17.78 18 17.5V5.5C18 5.22 17.78 5 17.5 5Z" fill="#B9BDC5"/>
<path d="M13 9.5V0.5C13 0.22 12.78 0 12.5 0H0.5C0.22 0 0 0.22 0 0.5V12.5C0 12.78 0.22 13 0.5 13H1C1.13 13 1.26 12.95 1.35 12.85L4.21 10H12.5C12.78 10 13 9.78 13 9.5Z" fill="#B9BDC5"/>
</svg>