<svg viewBox="0 0 56 56" xmlns="http://www.w3.org/2000/svg">
<path class="no-fill s-primary stroke fill-even" transform="translate(-469.98 -234)" d="M494.843,283H474a2,2,0,0,1-2-2V259a2,2,0,0,1,2-2h18.176"/>
<path class="no-fill s-primary stroke fill-even stroke-1" transform="translate(-469.98 -234)" d="M472,259s13.892,13.024,15,14a4.978,4.978,0,0,0,4.687.745"/>
<path class="no-fill stroke fill-even stroke-2" transform="translate(-469.98 -234)" d="m473 281 7-7"/>
<path class="no-fill s-primary stroke fill-even" transform="translate(-469.98 -234)" d="m494 241h28a2 2 0 0 1 2 2v38a2 2 0 0 1-2 2h-28a2 2 0 0 1-2-2v-38a2 2 0 0 1 2-2z"/>
<path class="s-primary stroke fill-even stroke-1 f-white" transform="translate(-469.98 -234)" d="m493 255h26"/>
<path class="s-primary stroke fill-even stroke-1 f-white" transform="translate(-469.98 -234)" d="m493 269h26"/>
<path class="s-primary stroke fill-even stroke-1 f-white" transform="translate(-469.98 -234)" d="m516 248h3"/>
<path class="fill-even f-primary" transform="translate(-469.98 -234)" d="m499 247a1 1 0 1 1-1 1 1 1 0 0 1 1-1zm0 14a1 1 0 1 1-1 1 1 1 0 0 1 1-1zm0 14a1 1 0 1 1-1 1 1 1 0 0 1 1-1zm4-28a1 1 0 1 1-1 1 1 1 0 0 1 1-1zm0 14a1 1 0 1 1-1 1 1 1 0 0 1 1-1zm0 14a1 1 0 1 1-1 1 1 1 0 0 1 1-1z"/>
<path class="s-primary stroke fill-even stroke-1 f-white" transform="translate(-469.98 -234)" d="m516 263h3"/>
<path class="s-primary stroke fill-even stroke-1 f-white" transform="translate(-469.98 -234)" d="m516 276h3"/>
</svg>