<svg viewBox="0 0 56 56" xmlns="http://www.w3.org/2000/svg">
<path class="no-fill stroke s-primary fill-even" transform="translate(-998 -233)" d="M1025.91,278H1006a3,3,0,0,1-3-3V247a3,3,0,0,1,3-3h20.04"/>
<path class="stroke s-primary fill-even f-white" transform="translate(-998 -233)" d="m1004 276 12-11"/>
<path class="no-fill stroke s-primary fill-even stroke-1" transform="translate(-998 -233)" d="m1003 246s17.75 16.462 19.17 17.7a5.915 5.915 0 0 0 3.88 1.268"/>
<path class="fill-even f-primary" transform="translate(-998 -233)" d="m1030 243a1 1 0 1 1-1 1 1 1 0 0 1 1-1zm4 0a1 1 0 1 1-1 1 1 1 0 0 1 1-1zm4 0a1 1 0 1 1-1 1 1 1 0 0 1 1-1zm4 0a1 1 0 1 1-1 1 1 1 0 0 1 1-1zm4 0a1 1 0 1 1-1 1 1 1 0 0 1 1-1zm3 2a1 1 0 1 1-1 1 1 1 0 0 1 1-1zm0 4a1 1 0 1 1-1 1 1 1 0 0 1 1-1zm0 4a1 1 0 1 1-1 1 1 1 0 0 1 1-1zm0 4a1 1 0 1 1-1 1 1 1 0 0 1 1-1zm0 4a1 1 0 1 1-1 1 1 1 0 0 1 1-1zm0 4a1 1 0 1 1-1 1 1 1 0 0 1 1-1zm0 4a1 1 0 1 1-1 1 1 1 0 0 1 1-1zm0 4a1 1 0 1 1-1 1 1 1 0 0 1 1-1zm-2 4a1 1 0 1 1-1 1 1 1 0 0 1 1-1zm-4 0a1 1 0 1 1-1 1 1 1 0 0 1 1-1zm-4 0a1 1 0 1 1-1 1 1 1 0 0 1 1-1zm-4 0a1 1 0 1 1-1 1 1 1 0 0 1 1-1zm-4 0a1 1 0 1 1-1 1 1 1 0 0 1 1-1zm-4 0a1 1 0 1 1-1 1 1 1 0 0 1 1-1zm0-13a1 1 0 1 1-1 1 1 1 0 0 1 1-1zm4-2a1 1 0 1 1-1 1 1 1 0 0 1 1-1zm3-3a1 1 0 1 1-1 1 1 1 0 0 1 1-1zm3-3a1 1 0 1 1-1 1 1 1 0 0 1 1-1zm3-3a1 1 0 1 1-1 1 1 1 0 0 1 1-1zm3-3a1 1 0 1 1-1 1 1 1 0 0 1 1-1zm3-3a1 1 0 1 1-1 1 1 1 0 0 1 1-1zm-9 18a1 1 0 1 1-1 1 1 1 0 0 1 1-1zm3 3a1 1 0 1 1-1 1 1 1 0 0 1 1-1zm3 3a1 1 0 1 1-1 1 1 1 0 0 1 1-1zm3 3a1 1 0 1 1-1 1 1 1 0 0 1 1-1z"/>
<path class="no-fill stroke s-primary fill-even" transform="translate(-998 -233)" d="m999 244v-5h5"/>
<path class="no-fill stroke s-primary fill-even" transform="translate(-998 -233)" d="m1026 239v45"/>
<path class="no-fill stroke s-primary fill-even" transform="translate(-998 -233)" d="m1053 244v-5h-5"/>
<path class="no-fill stroke s-primary fill-even" transform="translate(-998 -233)" d="m999 277v5h5"/>
<path class="no-fill stroke s-primary fill-even" transform="translate(-998 -233)" d="m1053 277v5h-5"/>
</svg>