<svg width="18" height="18" version="1.1" id="Layer_1" xmlns:x="&amp;ns_extend;" xmlns:i="&amp;ns_ai;" xmlns:graph="&amp;ns_graphs;" xmlns="http://www.w3.org/2000/svg" xmlns:xlink="http://www.w3.org/1999/xlink" x="0px" y="0px" viewBox="0 0 18 18" style="enable-background:new 0 0 18 18;" xml:space="preserve">
<metadata>
<sfw>
<slices/>
<slicesourcebounds bottomleftorigin="true" height="16.6" width="16.5" x="0.6" y="-17"/>
</sfw>
</metadata>
<g>
<path style="fill:#B9BDC5;" d="M12.8,17c-2.8,0-6.2-3.4-7.4-4.6c0,0,0,0,0,0l-0.1-0.1c-1.5-1.5-5.4-5.4-4.4-8.4C1.1,2.9,2,2,2,2&#10;&#9;&#9;c0.5-0.4,1.1-0.8,1.7-0.8c0.3,0,0.6,0.1,0.9,0.3c0,0,0.1,0.1,0.1,0.1l0,0c0,0,0.1,0.1,0.1,0.1C4.9,1.9,4.9,2,5,2l0,0c0,0,0,0,0,0&#10;&#9;&#9;c0,0,0,0,0,0.1c0,0,0,0,0,0.1l0,0l0,0c0,0,0.1,0.2,0.2,0.4C5.4,2.7,5.5,2.9,5.6,3l0.1,0.2c0.1,0.2,0.4,0.7,0.6,1&#10;&#9;&#9;c0.4,1-0.1,1.4-0.3,1.7L5.2,6.7C4.8,7.2,5,8.1,5.5,8.6l1.7,1.8l0,0l0,0l1.8,1.7c0.3,0.3,0.8,0.5,1.2,0.5c0.3,0,0.5-0.1,0.7-0.2&#10;&#9;&#9;l0.7-0.7c0.2-0.2,0.5-0.5,1-0.5c0.2,0,0.4,0.1,0.7,0.1c0.3,0.1,0.6,0.3,0.9,0.4c0,0,0.1,0,0.1,0.1c0,0,0.2,0.1,0.2,0.1l0.1,0.1&#10;&#9;&#9;c0.3,0.2,0.5,0.3,0.6,0.4l0.1,0.1l0.1,0c0,0,0.1,0.1,0.1,0.1l0,0c0.1,0,0.1,0.1,0.2,0.1c1.1,0.9,0.6,1.9-0.1,2.8&#10;&#9;&#9;c0,0-0.8,0.9-1.8,1.3C13.5,16.9,13.1,17,12.8,17z"/>
<path style="fill:#B9BDC5;" d="M16.7,9.4c-0.2,0-0.4-0.2-0.4-0.4l0-0.1c-0.1-1.9-1-3.8-2.4-5.2c-1.4-1.4-3.3-2.3-5.2-2.4l-0.1,0&#10;&#9;&#9;c-0.1,0-0.2-0.1-0.3-0.1C8.2,1.1,8.1,1,8.1,0.8c0-0.2,0.2-0.4,0.4-0.4l0.1,0c2.2,0.1,4.2,1.1,5.8,2.6c1.6,1.6,2.5,3.6,2.6,5.8&#10;&#9;&#9;l0,0.1c0,0.1,0,0.2-0.1,0.3C16.9,9.4,16.8,9.4,16.7,9.4L16.7,9.4z"/>
<path style="fill:#B9BDC5;" d="M14.2,9.4c-0.2,0-0.4-0.2-0.4-0.4c-0.1-1.3-0.7-2.6-1.6-3.6c-1-1-2.2-1.6-3.6-1.6&#10;&#9;&#9;c-0.1,0-0.2-0.1-0.3-0.1C8.2,3.6,8.1,3.5,8.1,3.4C8.1,3.1,8.3,3,8.6,3c1.6,0.1,3,0.8,4.1,1.9C13.8,6,14.5,7.4,14.6,9&#10;&#9;&#9;C14.6,9.2,14.4,9.4,14.2,9.4L14.2,9.4z"/>
<path style="fill:#B9BDC5;" d="M11.6,9.4c-0.2,0-0.4-0.2-0.4-0.4c-0.1-0.7-0.4-1.3-0.9-1.8C9.8,6.7,9.2,6.4,8.5,6.4&#10;&#9;&#9;c-0.1,0-0.2-0.1-0.3-0.2C8.1,6.1,8.1,6,8.1,5.9c0-0.2,0.2-0.4,0.4-0.4c0,0,0,0,0,0c0.9,0.1,1.7,0.5,2.3,1.1c0.6,0.6,1,1.5,1.1,2.3&#10;&#9;&#9;c0,0.1,0,0.2-0.1,0.3C11.9,9.4,11.8,9.4,11.6,9.4C11.7,9.4,11.7,9.4,11.6,9.4z"/>
</g>
</svg>