<svg viewBox="0 0 56 56" xmlns="http://www.w3.org/2000/svg">
<path class="no-fill s-primary stroke fill-even" transform="translate(-999.98 -374)" d="M1034.36,416H1006a3,3,0,0,1-3-3V385a3,3,0,0,1,3-3h40a3,3,0,0,1,3,3v12.706"/>
<path class="s-primary stroke fill-even f-white" transform="translate(-999.98 -374)" d="m1004 414 12-11"/>
<path class="no-fill s-primary stroke fill-even stroke-1" transform="translate(-999.98 -374)" d="M1003,384s17.75,16.462,19.17,17.7c2.12,1.852,6.2,1.522,7.94,0m4.65-4.278L1049,384"/>
<path class="no-fill s-primary stroke fill-even stroke-1" transform="translate(-999.98 -374)" d="m1043 421.74h-0.02a1.935 1.935 0 0 1-1.92 0h-0.02s-10.02-4.345-10.02-14.745v-6a2 2 0 0 1 1.61-1.961 42.991 42.991 0 0 1 18.78 0 2 2 0 0 1 1.61 1.961v6c0 10.4-10.02 14.745-10.02 14.745z"/>
</svg>