<svg viewBox="0 0 56 56" xmlns="http://www.w3.org/2000/svg">
<path class="f-white stroke s-primary fill-even" transform="translate(-470 -234)" d="m504 274v8m-12 0v-8"/>
<path class="stroke s-primary fill-even no-fill" transform="translate(-470 -234)" d="m478 242h40a3 3 0 0 1 3 3v26a3 3 0 0 1-3 3h-40a3 3 0 0 1-3-3v-26a3 3 0 0 1 3-3z"/>
<rect class="f-primary" x="14" y="47" width="28" height="2" rx="1" ry="1"/>
<path class="fill-even f-primary " transform="translate(-470 -234)" d="M507.8,257.538l-0.042.231a4.83,4.83,0,0,1-.587,1.343,4.186,4.186,0,0,1-.966,1.05,4.827,4.827,0,0,1-1.238.694,4.175,4.175,0,0,1-1.427.252h-2.029l0.546-2.059a1.356,1.356,0,0,1,.441-0.672,1.214,1.214,0,0,1,.755-0.251h0.161a1.5,1.5,0,0,0,.965-0.337,1.6,1.6,0,0,0,.567-0.86,1.541,1.541,0,0,0,.021-0.757,1.691,1.691,0,0,0-.294-0.651,1.709,1.709,0,0,0-.546-0.462,1.386,1.386,0,0,0-.713-0.167h-1.679l-2.162,8.274a1.352,1.352,0,0,1-.441.672,1.178,1.178,0,0,1-.756.251H496.3l2.939-11.235a1.41,1.41,0,0,1,.441-0.692,1.211,1.211,0,0,1,.755-0.252h3.128a4.17,4.17,0,0,1,1.973.482,4.259,4.259,0,0,1,1.511,1.281,4.594,4.594,0,0,1,.818,1.807A4.292,4.292,0,0,1,507.8,257.538Zm-11.509.1a1.215,1.215,0,0,1-.756.253h-1.574a1.5,1.5,0,0,0-.944.315,1.649,1.649,0,0,0-.588,1.638,1.691,1.691,0,0,0,.294.651,1.43,1.43,0,0,0,.546.441,1.634,1.634,0,0,0,.713.168h0.966a0.519,0.519,0,0,1,.441.23,0.613,0.613,0,0,1,.105.5l-0.63,2.246h-1.05a4.17,4.17,0,0,1-1.973-.482,4.252,4.252,0,0,1-1.511-1.282,4.569,4.569,0,0,1-.818-1.806,4.642,4.642,0,0,1,.042-2.078l0.084-.211a4.329,4.329,0,0,1,.608-1.343,4.41,4.41,0,0,1,3.631-1.975h3.38l-0.5,2.038A1.308,1.308,0,0,1,496.294,257.642Z"/>
</svg>