<svg enable-background="new 0 0 56 56" version="1.1" viewBox="0 0 56 56" xml:space="preserve" xmlns="http://www.w3.org/2000/svg">
<path class="no-fill stroke s-primary" d="M48.5,38v11c0,1.1-0.9,2-2,2h-37c-1.1,0-2-0.9-2-2V38"/>
<path class="f-primary" d="m15.5 43c0.6 0 1 0.4 1 1s-0.4 1-1 1-1-0.4-1-1 0.4-1 1-1zm4 0c0.6 0 1 0.4 1 1s-0.4 1-1 1-1-0.4-1-1 0.4-1 1-1z"/>
<path class="f-white s-primary stroke stroke-1" d="m40.5 44h3"/>
<path class="no-fill stroke s-primary " d="m9.5 5h37c1.1 0 2 0.9 2 2v24c0 1.1-0.9 2-2 2h-37c-1.1 0-2-0.9-2-2v-24c0-1.1 0.9-2 2-2z"/>
<path class="f-primary st" d="m31.9 15.5c-0.5-2.4-2.9-3.9-5.3-3.4-1.7 0.4-3 1.7-3.4 3.4-2.3 0.3-4 2.5-3.6 4.8 0.3 2.2 2.2 3.8 4.5 3.7h7.1c2.4 0.1 4.4-1.7 4.5-4 0-2.3-1.6-4.2-3.8-4.5z"/>
</svg>