<svg width="18" height="18" viewBox="0 0 18 18" fill="none" xmlns="http://www.w3.org/2000/svg">
<g clip-path="url(#clip0_3123:39)">
<path d="M17.5 5.99997H11.5C11.3674 5.99997 11.2402 6.05265 11.1464 6.14642C11.0527 6.24019 11 6.36737 11 6.49997V8.58997L3.56 1.14997C3.51352 1.10311 3.45822 1.06591 3.39729 1.04053C3.33636 1.01514 3.27101 1.00208 3.205 1.00208C3.13899 1.00208 3.07364 1.01514 3.01271 1.04053C2.95178 1.06591 2.89648 1.10311 2.85 1.14997L2.15 1.84997C2.10314 1.89646 2.06594 1.95176 2.04055 2.01269C2.01517 2.07362 2.0021 2.13897 2.0021 2.20497C2.0021 2.27098 2.01517 2.33633 2.04055 2.39726C2.06594 2.45819 2.10314 2.51349 2.15 2.55997L5.59 5.99997H0.5C0.367392 5.99997 0.240215 6.05265 0.146447 6.14642C0.0526784 6.24019 0 6.36737 0 6.49997L0 8.49997C0.000990667 8.57601 0.0180291 8.65098 0.05 8.71997L4.05 16.72C4.09215 16.8034 4.15641 16.8736 4.23577 16.923C4.31513 16.9724 4.40654 16.999 4.5 17H13.5C13.5935 16.999 13.6849 16.9724 13.7642 16.923C13.8436 16.8736 13.9079 16.8034 13.95 16.72L17.95 8.71997C17.982 8.65098 17.999 8.57601 18 8.49997V6.49997C18 6.36737 17.9473 6.24019 17.8536 6.14642C17.7598 6.05265 17.6326 5.99997 17.5 5.99997Z" fill="#B9BDC5"/>
</g>
<defs>
<clipPath id="clip0_3123:39">
<rect width="18" height="18" fill="white"/>
</clipPath>
</defs>
</svg>