<svg version="1.1" id="Layer_1" xmlns:x="&amp;ns_extend;" xmlns:i="&amp;ns_ai;" xmlns:graph="&amp;ns_graphs;" xmlns="http://www.w3.org/2000/svg" xmlns:xlink="http://www.w3.org/1999/xlink" x="0px" y="0px" viewBox="0 0 56 56" style="enable-background:new 0 0 56 56;" xml:space="preserve">
<metadata>
<sfw>
<slices/>
<slicesourcebounds bottomleftorigin="true" height="54.5" width="47.2" x="4.8" y="-55.5"/>
</sfw>
</metadata>
<g>
<g>
<g>
<path style="fill:#1C40F2;" d="M30.8,38.8H26c-2.8,0-5-2.2-5-5v-8.9c0-0.5,0.4-0.9,0.9-0.9h13.1c0.5,0,0.9,0.4,0.9,0.9v8.9&#10;&#9;&#9;&#9;&#9;C35.8,36.6,33.5,38.8,30.8,38.8z M22.7,25.8v8.1c0,1.8,1.5,3.3,3.3,3.3h4.8c1.8,0,3.3-1.5,3.3-3.3v-8.1H22.7z"/>
</g>
<g>
<path style="fill:#1C40F2;" d="M32.9,24.9h-1.7v-3.7c0-1-1.3-1.8-2.8-1.8s-2.8,0.8-2.8,1.8v3.7h-1.7v-3.7c0-1.9,2-3.5,4.5-3.5&#10;&#9;&#9;&#9;&#9;c2.5,0,4.5,1.6,4.5,3.5V24.9z"/>
</g>
<g>
<rect x="27.5" y="29.9" style="fill:#1C40F2;" width="1.7" height="3.4"/>
</g>
</g>
<g>
<path style="fill:#1C40F2;" d="M28.4,44.4c-8.9,0-16.1-7.2-16.1-16.1c0-8.9,7.2-16.1,16.1-16.1s16.1,7.2,16.1,16.1&#10;&#9;&#9;&#9;C44.5,37.1,37.3,44.4,28.4,44.4z M28.4,13.9c-7.9,0-14.4,6.5-14.4,14.4c0,7.9,6.5,14.4,14.4,14.4s14.4-6.5,14.4-14.4&#10;&#9;&#9;&#9;C42.8,20.3,36.3,13.9,28.4,13.9z"/>
</g>
<g>
<g>
<polygon style="fill:#1C40F2;" points="31.8,7 28.4,3.5 25,7 23.8,5.8 28.4,1 33,5.8 &#9;&#9;&#9;"/>
</g>
<g>
<rect x="27.5" y="2.2" style="fill:#1C40F2;" width="1.7" height="8.3"/>
</g>
</g>
<g>
<g>
<polygon style="fill:#1C40F2;" points="6.6,21 4.8,14.6 11.2,13 11.7,14.7 6.9,15.9 8.3,20.5 &#9;&#9;&#9;"/>
</g>
<g>
<rect x="8.6" y="13.2" transform="matrix(0.5 -0.866 0.866 0.5 -10.2713 16.867)" style="fill:#1C40F2;" width="1.7" height="8.3"/>
</g>
</g>
<g>
<g>
<polygon style="fill:#1C40F2;" points="11.2,43.5 4.8,41.9 6.6,35.5 8.3,36 6.9,40.6 11.7,41.8 &#9;&#9;&#9;"/>
</g>
<g>
<rect x="5.3" y="38.3" transform="matrix(0.866 -0.5 0.5 0.866 -18.3253 9.986)" style="fill:#1C40F2;" width="8.3" height="1.7"/>
</g>
</g>
<g>
<g>
<polygon style="fill:#1C40F2;" points="28.4,55.5 23.8,50.7 25,49.5 28.4,53 31.8,49.5 33,50.7 &#9;&#9;&#9;"/>
</g>
<g>
<rect x="27.5" y="46" style="fill:#1C40F2;" width="1.7" height="8.3"/>
</g>
</g>
<g>
<g>
<polygon style="fill:#1C40F2;" points="45.6,43.5 45.2,41.8 49.9,40.6 48.5,36 50.2,35.5 52,41.9 &#9;&#9;&#9;"/>
</g>
<g>
<rect x="46.5" y="35" transform="matrix(0.5 -0.866 0.866 0.5 -10.2711 60.5875)" style="fill:#1C40F2;" width="1.7" height="8.3"/>
</g>
</g>
<g>
<g>
<polygon style="fill:#1C40F2;" points="50.2,21 48.5,20.5 49.9,15.9 45.2,14.7 45.6,13 52,14.6 &#9;&#9;&#9;"/>
</g>
<g>
<rect x="43.2" y="16.5" transform="matrix(0.866 -0.5 0.5 0.866 -2.3227 25.9888)" style="fill:#1C40F2;" width="8.3" height="1.7"/>
</g>
</g>
</g>
</svg>