<svg version="1.1" id="icon-cpanel_hosting" xmlns="http://www.w3.org/2000/svg" xmlns:xlink="http://www.w3.org/1999/xlink" x="0px" y="0px" viewBox="0 0 56 56" enable-background="new 0 0 56 56" xml:space="preserve">
<g>
<path id="Prostokąt_zaokrąglony_5" fill-rule="evenodd" clip-rule="evenodd" fill="#FFFFFF" stroke="#1C40F2" stroke-width="2" d="&#10;                                                    M34,44v5 M22,49v-8"/>
<path id="Prostokąt_zaokrąglony_4_2_" fill="none" stroke="#1C40F2" stroke-width="2" d="M25.8,41H8c-1.7,0-3-1.3-3-3V12&#10;                                                    c0-1.7,1.3-3,3-3h40c1.7,0,3,1.3,3,3v26c0,1.7-1.3,3-3,3h-4.7"/>
<path id="Prostokąt_zaokrąglony_6" fill="#1C40F2" d="M15,48h26c0.6,0,1,0.4,1,1l0,0c0,0.6-0.4,1-1,1H15c-0.6,0-1-0.4-1-1l0,0&#10;                                                    C14,48.4,14.4,48,15,48z"/>
</g>
<g>
<circle fill="none" stroke="#1C40F2" stroke-width="2" cx="34.3" cy="30.9" r="13.2"/>
<path fill="#1C40F2" stroke="#1C40F2" stroke-width="2" stroke-miterlimit="10" d="M44,39.1l7.1,6.8c0.6,0.6,0.6,1.5,0,2.1L51.1,48&#10;                                                    c-0.6,0.6-1.5,0.6-2.1,0L42,41.3"/>
<circle fill="none" stroke="#1C40F2" stroke-width="2" cx="34.3" cy="30.9" r="9.7"/>
</g>
</svg>