<svg viewBox="0 0 56 56" xmlns="http://www.w3.org/2000/svg">
<path class="no-fill s-primary stroke fill-even" transform="translate(-470.81 -374)" d="M513.911,415H477a3,3,0,0,1-3-3V384a3,3,0,0,1,3-3h40a3,3,0,0,1,3,3v19.864"/>
<path class="s-primary stroke fill-even f-white" transform="translate(-470.81 -374)" d="m475 413 12-11"/>
<path class="s-primary stroke fill-even f-white" transform="translate(-470.81 -374)" d="M511.96,406.546L507,402"/>
<path class="no-fill s-primary stroke fill-even stroke-1" transform="translate(-470.81 -374)" d="M474,383s17.751,16.462,19.167,17.7c2.123,1.853,6.2,1.522,7.944,0C504.056,398.123,520,383,520,383"/>
<path class="no-fill s-primary stroke fill-even stroke-1" transform="translate(-470.81 -374)" d="m521 414v9l-4-3-4 3v-9"/>
<path class="no-fill s-primary stroke fill-even stroke-1" transform="translate(-470.81 -374)" d="M523.632,407.988a1.992,1.992,0,0,0-1.592-1.613c0-.134-0.132-0.134-0.132-0.269a1.875,1.875,0,0,0-.531-2.15,1.988,1.988,0,0,0-2.255-.134,0.264,0.264,0,0,1-.265-0.134h0A1.875,1.875,0,0,0,517,402.344a2,2,0,0,0-1.857,1.344h0a0.263,0.263,0,0,0-.265.134,1.988,1.988,0,0,0-2.255.134,1.875,1.875,0,0,0-.531,2.15c0,0.135-.132.135-0.132,0.269A1.971,1.971,0,0,0,511.3,410v0.4a1.843,1.843,0,0,0-.132,2.15,1.963,1.963,0,0,0,1.989.94,0.509,0.509,0,0,1,.266.269,1.911,1.911,0,0,0,1.193,1.747,2.047,2.047,0,0,0,2.123-.537h0.53a2.12,2.12,0,0,0,1.459.672,1.176,1.176,0,0,0,.663-0.135,1.733,1.733,0,0,0,1.194-1.747,0.5,0.5,0,0,0,.266-0.269,1.964,1.964,0,0,0,1.989-.94,2.076,2.076,0,0,0-.132-2.15V410A2.007,2.007,0,0,0,523.632,407.988Z"/>
</svg>