<svg viewBox="0 0 56 56" xmlns="http://www.w3.org/2000/svg">
<circle class="no-fill s-primary stroke" cx="4" cy="9" r="3"/>
<path class="f-primary fill-even" transform="translate(-998 -507)" d="m1007 520a1 1 0 1 1-1 1 1 1 0 0 1 1-1zm38 0a1 1 0 1 1-1 1 1 1 0 0 1 1-1zm0 28a1 1 0 1 1-1 1 1 1 0 0 1 1-1zm-38 0a1 1 0 1 1-1 1 1 1 0 0 1 1-1z"/>
<circle class="no-fill s-primary stroke" cx="52" cy="9" r="3"/>
<circle class="no-fill s-primary stroke" cx="4" cy="47" r="3"/>
<circle class="no-fill s-primary stroke" cx="52" cy="47" r="3"/>
<path class="s-primary stroke fill-even f-white" transform="translate(-998 -507)" d="m1030 547v7m-8 0v-7"/>
<path class="no-fill s-primary stroke fill-even" transform="translate(-998 -507)" d="m1011 523h30a2 2 0 0 1 2 2v20a2 2 0 0 1-2 2h-30a2 2 0 0 1-2-2v-20a2 2 0 0 1 2-2z"/>
<rect class="f-primary" x="18" y="46" width="20" height="2" rx="1" ry="1"/>
<path class="f-primary fill-even" transform="translate(-998 -507)" d="M1019,540.032l5.41,0.8v-4.685H1019v3.888Zm0-5.175h5.41v-4.686l-5.41.8v3.889Zm6.66-4.937v4.937H1032v-5.871Zm0,11.16,6.34,0.933v-5.869h-6.34v4.936Z"/>
</svg>