<svg width="18" height="18" viewBox="0 0 18 18" fill="none" xmlns="http://www.w3.org/2000/svg">
<path d="M9 8C11.2091 8 13 6.20914 13 4C13 1.79086 11.2091 0 9 0C6.79086 0 5 1.79086 5 4C5 6.20914 6.79086 8 9 8Z" fill="#B9BDC5"/>
<path d="M15.36 12.53C13.3939 11.5158 11.2122 10.9909 9 11C6.78779 10.9909 4.60605 11.5158 2.64 12.53C2.14712 12.7807 1.73312 13.1627 1.44371 13.6339C1.1543 14.105 1.00074 14.647 1 15.2V17.5C1 17.6326 1.05268 17.7598 1.14645 17.8535C1.24021 17.9473 1.36739 18 1.5 18H16.5C16.6326 18 16.7598 17.9473 16.8536 17.8535C16.9473 17.7598 17 17.6326 17 17.5V15.2C16.9993 14.647 16.8457 14.105 16.5563 13.6339C16.2669 13.1627 15.8529 12.7807 15.36 12.53Z" fill="#B9BDC5"/>
</svg>