<svg enable-background="new 0 0 56 56" version="1.1" viewBox="0 0 56 56" xml:space="preserve" xmlns="http://www.w3.org/2000/svg">
<path class="no-fill s-primary stroke" d="m48.5 37.5v11c0 1.1-0.9 2-2 2h-37c-1.1 0-2-0.9-2-2v-11"/>
<path class="f-primary" d="m13.5 42.5c0.6 0 1 0.4 1 1s-0.4 1-1 1-1-0.4-1-1 0.4-1 1-1zm4 0c0.6 0 1 0.4 1 1s-0.4 1-1 1-1-0.4-1-1 0.4-1 1-1z"/>
<path class="f-white s-primary stroke stroke-1" d="m39.5 43.5h3"/>
<path class="no-fill s-primary stroke" d="m9.5 5.5h37c1.1 0 2 0.9 2 2v24c0 1.1-0.9 2-2 2h-37c-1.1 0-2-0.9-2-2v-24c0-1.1 0.9-2 2-2z"/>
<path class="no-fill s-primary stroke" d="m20.5 19.5c0-4.4 3.6-8 8-8s8 3.6 8 8-3.6 8-8 8c-2.2 0-4.3-0.9-5.8-2.5"/>
<path class="no-fill s-primary stroke-1 stroke" d="m17.5 16.5 3 3 4-3"/>
<path class="no-fill s-primary stroke-1 stroke" d="m28.5 16.5v4h4"/>
</svg>