<svg enable-background="new 0 0 56 56" version="1.1" viewBox="0 0 56 56" xml:space="preserve" xmlns="http://www.w3.org/2000/svg">
<style type="text/css">
                                                .st0{fill:none;stroke:#1C40F2;stroke-width:2;}
                                                .st1{fill:#1C40F2;}
                                                .st2{fill:#FFFFFF;stroke:#1C40F2;stroke-width:2;stroke-linecap:round;stroke-linejoin:round;}
                                            </style>
<path class="st0" d="M48.5,37v11c0,1.1-0.9,2-2,2h-37c-1.1,0-2-0.9-2-2V37"/>
<path class="st1" d="m15.5 42c0.6 0 1 0.4 1 1s-0.4 1-1 1-1-0.4-1-1 0.4-1 1-1zm4 0c0.6 0 1 0.4 1 1s-0.4 1-1 1-1-0.4-1-1 0.4-1 1-1z"/>
<path class="st2" d="m40.5 43h3"/>
<path class="st0" d="m8.5 21h9c0.6 0 1 0.4 1 1v9c0 0.6-0.4 1-1 1h-9c-0.6 0-1-0.4-1-1v-9c0-0.6 0.4-1 1-1zm15 0h9c0.6 0 1 0.4 1 1v9c0 0.6-0.4 1-1 1h-9c-0.6 0-1-0.4-1-1v-9c0-0.6 0.4-1 1-1zm15 0h9c0.6 0 1 0.4 1 1v9c0 0.6-0.4 1-1 1h-9c-0.6 0-1-0.4-1-1v-9c0-0.6 0.4-1 1-1zm-30-15h9c0.6 0 1 0.4 1 1v9c0 0.6-0.4 1-1 1h-9c-0.6 0-1-0.4-1-1v-9c0-0.6 0.4-1 1-1zm15 0h9c0.6 0 1 0.4 1 1v9c0 0.6-0.4 1-1 1h-9c-0.6 0-1-0.4-1-1v-9c0-0.6 0.4-1 1-1zm15 0h9c0.6 0 1 0.4 1 1v9c0 0.6-0.4 1-1 1h-9c-0.6 0-1-0.4-1-1v-9c0-0.6 0.4-1 1-1z"/>
</svg>