<svg viewBox="0 0 56 56" xmlns="http://www.w3.org/2000/svg">
<path class="no-fill s-primary stroke fill-even" transform="translate(-998 -234)" d="m1015 283v-7"/>
<path class="no-fill s-primary stroke fill-even" transform="translate(-998 -234)" d="m1021 276h-17.99a2 2 0 0 1-2-2v-22a2 2 0 0 1 2-2h17.99"/>
<rect class="f-primary" x="11" y="48" width="20" height="2" rx="1" ry="1"/>
<path class="no-fill s-primary stroke fill-even" transform="translate(-998 -234)" d="m1022 241h28a1 1 0 0 1 1 1v40a1 1 0 0 1-1 1h-28a1 1 0 0 1-1-1v-40a1 1 0 0 1 1-1z"/>
<path class="no-fill s-primary stroke fill-even" transform="translate(-998 -234)" d="m1030 282v-7a1 1 0 0 1 1-1h10a1 1 0 0 1 1 1v7"/>
<path class="s-primary stroke fill-even f-white stroke-1" transform="translate(-998 -234)" d="m1036 274v9m-9-37v3m12-3v3m6-3v3m-12-3v3m-6 6v3m12-3v3m6-3v3m-12-3v3m-6 6v3m12-3v3m6-3v3m-12-3v3"/>
</svg>