<svg viewBox="0 0 56 56" xmlns="http://www.w3.org/2000/svg">
<circle class="no-fill s-primary stroke" cx="4" cy="9" r="3"/>
<path class="f-primary fill-even" transform="translate(-998 -370)" d="m1007 383a1 1 0 1 1-1 1 1 1 0 0 1 1-1zm38 0a1 1 0 1 1-1 1 1 1 0 0 1 1-1zm0 28a1 1 0 1 1-1 1 1 1 0 0 1 1-1zm-38 0a1 1 0 1 1-1 1 1 1 0 0 1 1-1z"/>
<circle class="no-fill s-primary stroke" cx="52" cy="9" r="3"/>
<circle class="no-fill s-primary stroke" cx="4" cy="47" r="3"/>
<circle class="no-fill s-primary stroke" cx="52" cy="47" r="3"/>
<path class="s-primary stroke fill-even f-white" transform="translate(-998 -370)" d="m1030 410v7m-8 0v-7"/>
<path class="no-fill s-primary stroke fill-even" transform="translate(-998 -370)" d="m1011 386h30a2 2 0 0 1 2 2v20a2 2 0 0 1-2 2h-30a2 2 0 0 1-2-2v-20a2 2 0 0 1 2-2z"/>
<rect class="f-primary" x="18" y="46" width="20" height="2" rx="1" ry="1"/>
<path class="f-primary fill-even" transform="translate(-998 -370)" d="M1025.84,389.586c-1.87,0-2.6,1.429-2.6,3.457,0,0.627.11,1.243,0.11,1.867s-2.2,2.5-2.2,5.439v0a1.915,1.915,0,0,1,.91-0.22,2.092,2.092,0,0,1,.95.234,10.115,10.115,0,0,1,1.12-3.326,7.024,7.024,0,0,0,.55-1.036,1.413,1.413,0,0,0,.96.559,2.082,2.082,0,0,0,1.33-.712c0.03-.024.07-0.057,0.11-0.084,0.12,0.185.25,0.368,0.39,0.553a8.349,8.349,0,0,1,1.48,3.82,1.907,1.907,0,0,1,.55-0.087,2.06,2.06,0,0,0,1.68,0,2.084,2.084,0,0,1,1.11.326V400.3c0-2.766-3.13-4.457-3.48-7.406C1028.68,392.028,1028.34,389.586,1025.84,389.586Zm-1.07,2.094a1.285,1.285,0,0,1,.72,1.325c0,0.1-.04.627-0.06,0.817a2,2,0,0,0-.81.526,1.573,1.573,0,0,1-.56-1.343A1.146,1.146,0,0,1,1024.77,391.68Zm1.79,0c0.39,0,.67.733,0.71,1.325a1.881,1.881,0,0,1-.42,1.322,4.613,4.613,0,0,0-.95-0.494c-0.02-.237-0.06-0.717-0.06-0.828A1.285,1.285,0,0,1,1026.56,391.68Zm-1.79,1.106a0.581,0.581,0,1,0,.36.537A0.475,0.475,0,0,0,1024.77,392.786Zm1.79,0a0.588,0.588,0,1,0,.35.537A0.475,0.475,0,0,0,1026.56,392.786Zm2.94,8.664a0.7,0.7,0,0,0-.69.7,11.593,11.593,0,0,1-.35,3.018,1.164,1.164,0,0,0,2.07.736,9.532,9.532,0,0,1,1.04-1.017,5.251,5.251,0,0,1,1.06-.73v-0.011a0.691,0.691,0,0,0-.34-1.3,0.5,0.5,0,0,1-.34-0.128,0.413,0.413,0,0,1-.1-0.384,1.624,1.624,0,0,0,.02-0.186,0.7,0.7,0,0,0-.69-0.7,0.634,0.634,0,0,0-.44.172,0.505,0.505,0,0,1-.78.008A0.717,0.717,0,0,0,1029.5,401.45Zm-7.35.087a0.665,0.665,0,0,0-.28.019,0.733,0.733,0,0,0-.39.3,0.5,0.5,0,0,1-.75.207,0.63,0.63,0,0,0-.47-0.044,0.694,0.694,0,0,0-.48.862,1.362,1.362,0,0,0,.08.171,0.463,0.463,0,0,1,0,.4,0.492,0.492,0,0,1-.29.215,0.694,0.694,0,0,0-.48.861,0.683,0.683,0,0,0,.51.48v0.009a5.35,5.35,0,0,1,1.22.409,10.3,10.3,0,0,1,1.28.7,1.157,1.157,0,0,0,.98.172,1.182,1.182,0,0,0,.81-1.448,11.917,11.917,0,0,1-1.16-2.805A0.7,0.7,0,0,0,1022.15,401.537Zm2.96,2.637c0.04,0.09.08,0.177,0.12,0.289a2.6,2.6,0,0,1,.04,1.175h1.84a2.452,2.452,0,0,1-.04-0.472,2.876,2.876,0,0,1,.13-0.821c0.01-.049.03-0.106,0.04-0.169a4.946,4.946,0,0,1-1.04.109A5.358,5.358,0,0,1,1025.11,404.174Z"/>
</svg>