<svg viewBox="0 0 56 56" xmlns="http://www.w3.org/2000/svg">
<path class="no-fill stroke s-primary fill-even" transform="translate(-470 -372)" d="m504 412v8m-12 0v-8"/>
<path class="stroke s-primary fill-even no-fill" transform="translate(-470 -372)" d="m478 380h40a3 3 0 0 1 3 3v26a3 3 0 0 1-3 3h-40a3 3 0 0 1-3-3v-26a3 3 0 0 1 3-3z"/>
<rect class="f-primary" x="14" y="47" width="28" height="2" rx="1" ry="1"/>
<path class="fill-even f-primary" transform="translate(-470 -372)" d="M491,401.032l5.407,0.8v-4.685H491v3.888Zm0-5.175h5.407v-4.686l-5.407.8v3.889Zm6.662-4.937v4.937H504v-5.871Zm0,11.161,6.34,0.932v-5.869h-6.34v4.937Z"/>
</svg>