<svg version="1.1" id="Sustainability" xmlns:x="&amp;ns_extend;" xmlns:i="&amp;ns_ai;" xmlns:graph="&amp;ns_graphs;" xmlns="http://www.w3.org/2000/svg" xmlns:xlink="http://www.w3.org/1999/xlink" x="0px" y="0px" viewBox="0 0 225.8 208.2" style="enable-background:new 0 0 225.8 208.2;" xml:space="preserve">
<metadata>
<sfw>
<slices/>
<slicesourcebounds bottomleftorigin="true" height="169.1" width="222.8" x="1610" y="-536.3"/>
</sfw>
</metadata>
<g>
<path style="fill:#1C40F2;" d="M191.8,53.2c-6.2-8.3-15.7-13.5-26-14.4c-8.2-21.9-29-36.4-52.5-36.4C98.7,2.3,85,7.9,74.5,17.9&#10;&#9;&#9;C55.8,9.8,13.8,21.6,18,64.5c-4.6,5.8-7.1,13-7.1,20.3c0,18.2,14.8,33,33,33h33v-6.6H44c-14.6,0-26.4-11.8-26.4-26.4&#10;&#9;&#9;c0-11,7.5-18.4,7.5-18.4c-6.3-23.6,17.7-54.6,51.1-40.7c0,0,13.1-16.7,37.1-16.7c32.3,0,45.8,27.7,47.7,36.3&#10;&#9;&#9;c7.7-0.2,17.8,1.3,26.8,13.7c0,0,19.9,3.5,21.1,25.9c0.6,10.6-9.1,26-26.4,26.4h-33v6.6h33c18.2,0,33-14.8,33-33&#10;&#9;&#9;C215.5,70.1,205.8,57.3,191.8,53.2z"/>
<rect x="90.2" y="68.3" style="fill:#1C40F2;" width="46.2" height="6.6"/>
<rect x="90.2" y="84.8" style="fill:#1C40F2;" width="46.2" height="6.6"/>
<rect x="90.2" y="101.3" style="fill:#1C40F2;" width="46.2" height="6.6"/>
<rect x="109.9" y="134.3" style="fill:#1C40F2;" width="6.6" height="6.6"/>
<rect x="109.9" y="187.1" style="fill:#1C40F2;" width="6.6" height="6.6"/>
<path style="fill:#1C40F2;" d="M129.7,173.9h-13.2V164h29.7V51.8h-66V164h29.7v9.9H96.8v13.2H50.6v6.6h46.2v13.2h33v-13.2h46.2&#10;&#9;&#9;v-6.6h-46.2V173.9z M86.9,58.4h52.8v99H86.9V58.4z M123.1,200.3h-19.8v-19.8h19.8V200.3z"/>
<path style="fill:#1C40F2;" d="M37.4,58.4c0-12.7,10.4-23.1,23.1-23.1v-6.6c-16.4,0-29.7,13.3-29.7,29.7H37.4z"/>
</g>
</svg>