<svg version="1.1" id="Layer_1" xmlns:x="&amp;ns_extend;" xmlns:i="&amp;ns_ai;" xmlns:graph="&amp;ns_graphs;" xmlns="http://www.w3.org/2000/svg" xmlns:xlink="http://www.w3.org/1999/xlink" x="0px" y="0px" viewBox="0 0 2214.6 2713.7" style="enable-background:new 0 0 2214.6 2713.7;" xml:space="preserve">
<metadata>
<sfw>
<slices/>
<slicesourcebounds bottomleftorigin="true" height="2700" width="2188.1" x="15" y="-2707"/>
<optimizationsettings>
<targetsettings fileformat="JPEGFormat" targetsettingsid="0">
<jpegformat bluramount="0" embediccprofile="true" mattecolor="#FFFFFF" nomattecolor="false" optimized="true" progressive="true" quality="100">
</jpegformat>
</targetsettings>
</optimizationsettings>
</sfw>
</metadata>
<g>
<g>
<path style="fill:#1C40F2;" d="M1101,2487.8c-76.8,0-184.5-51.1-289.4-104.5c-12-6.1-22.6-11.5-31.5-15.9&#10;&#9;&#9;&#9;C670.5,2313.7,574.6,2248,495.3,2172c-154.2-147.5-259.9-332.8-290.2-508.6c-16.2-94.1-13-193.2-9.9-289&#10;&#9;&#9;&#9;c1.2-38.2,2.4-74.2,2.4-109.8c0-8.9,0.5-36.5,1.3-78.3c2.2-117.8,8.7-470,2-525.1c-2.9-7.1-4-15.1-2.9-23.3&#10;&#9;&#9;&#9;c3.4-24.7,26.3-41.8,51-38.5c0,0,0.1,0,0.1,0c402.3,56.2,674.6-58.2,832.6-349.8c7.5-13.8,21.5-22.7,37.2-23.6&#10;&#9;&#9;&#9;c15.7-0.8,30.6,6.4,39.6,19.3c202.9,291.4,468,407.3,810.6,354.1c13-2,26.3,1.8,36.3,10.3c10,8.6,15.8,21.1,15.8,34.3v396.1&#10;&#9;&#9;&#9;c0,52.7,1.1,106,2.2,157.5c3,141,5.8,274.3-11.9,408.4l0,0c-21.3,162.2-68.9,295.2-149.7,418.5&#10;&#9;&#9;&#9;c-187.6,286.2-500.8,408.1-730.4,459.9C1121.8,2486.8,1111.7,2487.8,1101,2487.8z M293,695.9c0.1,3,0.1,6.1,0.2,9.2&#10;&#9;&#9;&#9;c0.8,34.9,1,84.9,0.6,148.5c-0.7,114.8-3.2,252.3-4.8,334.4c-0.7,39.8-1.3,68.5-1.3,76.6c0,37.1-1.2,75.5-2.4,112.7&#10;&#9;&#9;&#9;c-3,91.3-6,185.7,8.6,270.8c27.1,157.1,123.2,324.3,263.6,458.7c72.6,69.5,160.9,129.9,262.2,179.6c9.2,4.5,20.3,10.1,32.7,16.5&#10;&#9;&#9;&#9;c62,31.5,207.2,105.4,258.8,93.8c213.4-48.2,503.8-160.4,674.8-421.4c73.1-111.5,116.2-232.5,135.7-380.8l0,0&#10;&#9;&#9;&#9;c16.7-127.3,14-257.2,11.1-394.7c-1.1-51.9-2.2-105.7-2.2-159.3V695.8c-328.5,36-598.9-79.1-805.3-342.8&#10;&#9;&#9;&#9;C953.4,620.3,673.9,735.4,293,695.9z M235.5,688.9c0.3,0.1,0.6,0.1,0.9,0.1l0,0C236.2,689,235.9,688.9,235.5,688.9z M235.5,688.8&#10;&#9;&#9;&#9;C235.5,688.9,235.5,688.9,235.5,688.8C235.5,688.9,235.5,688.9,235.5,688.8z M235.3,688.8C235.3,688.8,235.4,688.8,235.3,688.8&#10;&#9;&#9;&#9;C235.4,688.8,235.3,688.8,235.3,688.8z"/>
</g>
<g>
<path style="fill:#1C40F2;" d="M944.3,1754.3c-11.6,0-23.1-4.4-31.9-13.2l-309.2-309.2c-17.6-17.6-17.6-46.2,0-63.8&#10;&#9;&#9;&#9;c17.6-17.6,46.2-17.6,63.8,0l277.3,277.3l609.1-609.1c17.6-17.6,46.2-17.6,63.8,0c17.6,17.6,17.6,46.2,0,63.8l-641,641&#10;&#9;&#9;&#9;C967.4,1749.9,955.8,1754.3,944.3,1754.3z"/>
</g>
</g>
</svg>