<svg viewBox="0 0 56 56" xmlns="http://www.w3.org/2000/svg">
<path class="f-white stroke s-primary fill-even" transform="translate(-470 -507)" d="m504 547v8m-12 0v-8"/>
<path class="stroke s-primary fill-even no-fill" transform="translate(-470 -507)" d="m478 515h40a3 3 0 0 1 3 3v26a3 3 0 0 1-3 3h-40a3 3 0 0 1-3-3v-26a3 3 0 0 1 3-3z"/>
<rect class="f-primary" x="14" y="47" width="28" height="2" rx="1" ry="1"/>
<path class="fill-even f-primary" transform="translate(-470 -507)" d="M497.5,522.4a8.1,8.1,0,1,0,8.1,8.1A8.1,8.1,0,0,0,497.5,522.4Zm-7.279,8.1a7.128,7.128,0,0,1,.626-2.959l3.478,9.525A7.3,7.3,0,0,1,490.221,530.5Zm7.279,7.279a7.122,7.122,0,0,1-2.052-.3l2.182-6.35,2.246,6.134a0.237,0.237,0,0,1,.043.109A7.489,7.489,0,0,1,497.5,537.779Zm0.994-10.692c0.432-.022.842-0.065,0.842-0.065a0.3,0.3,0,0,0-.043-0.605s-1.188.087-1.944,0.087c-0.713,0-1.923-.087-1.923-0.087a0.3,0.3,0,0,0-.043.605s0.367,0.043.756,0.065l1.145,3.11-1.6,4.774-2.657-7.884c0.432-.022.842-0.065,0.842-0.065a0.3,0.3,0,0,0-.043-0.605s-1.188.087-1.944,0.087h-0.475a7.281,7.281,0,0,1,11.016-1.361h-0.087a1.273,1.273,0,0,0-1.231,1.3,3.415,3.415,0,0,0,.713,1.706,3.751,3.751,0,0,1,.605,2.009,8.557,8.557,0,0,1-.562,2.354l-0.734,2.42Zm5.4-.087a7.324,7.324,0,0,1,.885,3.5,7.234,7.234,0,0,1-3.629,6.285l2.225-6.437a7.023,7.023,0,0,0,.562-2.613C503.937,527.476,503.915,527.238,503.894,527Z"/>
</svg>